<svg xmlns="http://www.w3.org/2000/svg" width="256" height="148" viewBox="0 0 256 148">
  <g id="i1" transform="translate(-1360 -2085)">
    <g id="Grupo_718" data-name="Grupo 718" transform="translate(1360 2085)">
      <g id="Grupo_714" data-name="Grupo 714">
        <g id="Grupo_692" data-name="Grupo 692">
          <g id="Grupo_661" data-name="Grupo 661">
            <rect id="Rectángulo_607" data-name="Rectángulo 607" width="256" height="148" rx="20" fill="#f00326"/>
          </g>
        </g>
      </g>
      <path id="Icon_awesome-pinterest" data-name="Icon awesome-pinterest" d="M96.529,48.827a48.271,48.271,0,0,1-62.55,46.1c1.966-3.211,4.9-8.466,5.994-12.65.584-2.258,3-11.482,3-11.482,1.576,3,6.169,5.547,11.054,5.547,14.557,0,25.047-13.39,25.047-30.029,0-15.939-13.02-27.869-29.757-27.869-20.824,0-31.9,13.973-31.9,29.212,0,7.084,3.776,15.9,9.789,18.7.915.428,1.4.234,1.615-.642.156-.662.973-3.951,1.343-5.469a1.445,1.445,0,0,0-.331-1.382,19.007,19.007,0,0,1-3.561-11.015c0-10.645,8.057-20.941,21.8-20.941,11.852,0,20.162,8.077,20.162,19.637,0,13.059-6.6,22.108-15.18,22.108-4.729,0-8.291-3.912-7.142-8.719C47.272,54.2,49.9,48.01,49.9,43.865c0-3.7-1.985-6.792-6.111-6.792-4.846,0-8.738,5-8.738,11.716a17.391,17.391,0,0,0,1.44,7.162s-4.768,20.2-5.644,23.977c-.973,4.165-.584,10.042-.175,13.857A48.27,48.27,0,1,1,96.529,48.827Z" transform="translate(79.708 25.034)" fill="#fff"/>
    </g>
  </g>
</svg>
