<svg id="i2" xmlns="http://www.w3.org/2000/svg" width="257" height="148" viewBox="0 0 257 148">
  <g id="Grupo_715" data-name="Grupo 715">
    <g id="Grupo_692" data-name="Grupo 692">
      <g id="Grupo_661" data-name="Grupo 661">
        <rect id="Rectángulo_607" data-name="Rectángulo 607" width="257" height="148" rx="20" fill="#115efa"/>
      </g>
    </g>
  </g>
  <path id="Icon_awesome-behance" data-name="Icon awesome-behance" d="M47.036,38.1c6.447-3.082,9.813-7.745,9.813-15,0-14.314-10.664-17.8-22.971-17.8H0V77.153H34.831c13.057,0,25.322-6.265,25.322-20.862C60.153,47.269,55.875,40.6,47.036,38.1ZM15.794,17.567h14.82c5.7,0,10.826,1.6,10.826,8.211,0,6.1-3.994,8.556-9.63,8.556H15.794ZM32.682,64.948H15.794V45.161H33.006c6.954,0,11.354,2.9,11.354,10.259,0,7.258-5.251,9.529-11.678,9.529Zm72.683-48.8H76.231V9.073h29.134v7.076Zm11.414,35.743c0-15.388-9-28.222-25.322-28.222-15.854,0-26.62,11.921-26.62,27.532,0,16.2,10.2,27.309,26.62,27.309,12.428,0,20.477-5.6,24.349-17.5H103.2c-1.358,4.44-6.954,6.792-11.293,6.792-8.373,0-12.773-4.906-12.773-13.239h37.528c.056-.847.117-1.763.117-2.671ZM79.15,45.566c.466-6.832,5.008-11.11,11.86-11.11,7.177,0,10.786,4.217,11.394,11.11Z" transform="translate(70.469 31.85)" fill="#fff"/>
</svg>
