<svg xmlns="http://www.w3.org/2000/svg" width="256" height="148" viewBox="0 0 256 148">
  <g id="i3" transform="translate(-1325 -1263)">
    <g id="Grupo_716" data-name="Grupo 716" transform="translate(1325 1263)">
      <g id="Grupo_692" data-name="Grupo 692">
        <g id="Grupo_661" data-name="Grupo 661">
          <rect id="Rectángulo_607" data-name="Rectángulo 607" width="256" height="148" rx="20" fill="#14a800"/>
        </g>
      </g>
    </g>
    <path id="Trazado_293" data-name="Trazado 293" d="M270.759,637.789c-5.358,0-10.374-2.271-14.937-5.968l1.111-5.217.049-.191c.991-5.554,4.128-14.882,13.777-14.882a13.129,13.129,0,1,1,0,26.258Zm0-39.572c-12.329,0-21.885,8.021-25.768,21.21A108.727,108.727,0,0,1,231.939,590.8H218.674v34.567a12.353,12.353,0,1,1-24.706,0V590.8H180.7v34.567a25.624,25.624,0,1,0,51.248,0v-5.8a82.814,82.814,0,0,0,9.579,15.656l-8.13,38.265h13.586l5.886-27.755a32.642,32.642,0,0,0,17.9,5.385,26.45,26.45,0,0,0-.005-52.9Z" transform="translate(1213.199 711.827)" fill="#fff"/>
  </g>
</svg>
