<svg xmlns="http://www.w3.org/2000/svg" xmlns:xlink="http://www.w3.org/1999/xlink" width="1037.001" height="291" viewBox="0 0 1037.001 291">
  <defs>
    <linearGradient id="linear-gradient" x1="-0.211" y1="0.5" x2="1.348" y2="0.5" gradientUnits="objectBoundingBox">
      <stop offset="0" stop-color="#09f"/>
      <stop offset="0.453" stop-color="#00fbff"/>
      <stop offset="1" stop-color="#05e2ae"/>
    </linearGradient>
  </defs>
  <g id="p2" transform="translate(-1287 -1944)">
    <g id="Grupo_730" data-name="Grupo 730" transform="translate(576 248)">
      <path id="Intersección_8" data-name="Intersección 8" d="M45.5,291A45.5,45.5,0,0,1,0,245.5V45.5A45.5,45.5,0,0,1,45.5,0h946A45.5,45.5,0,0,1,1037,45.5v200A45.5,45.5,0,0,1,991.5,291Z" transform="translate(711 1696)" fill="url(#linear-gradient)"/>
      <path id="Trazado_319" data-name="Trazado 319" d="M25.48-49a12.09,12.09,0,0,1,6.79,2.135,15.8,15.8,0,0,1,5.18,5.74,16.221,16.221,0,0,1,1.96,7.875,16.282,16.282,0,0,1-1.96,7.84,15.726,15.726,0,0,1-5.18,5.775A12.09,12.09,0,0,1,25.48-17.5H13.3V-4.27a4.312,4.312,0,0,1-1.12,3.08A3.85,3.85,0,0,1,9.24,0,3.714,3.714,0,0,1,6.37-1.225,4.343,4.343,0,0,1,5.25-4.27V-44.73a4.134,4.134,0,0,1,1.225-3.045A4.134,4.134,0,0,1,9.52-49Zm0,23.52a4.013,4.013,0,0,0,2.625-1.12,8.255,8.255,0,0,0,2.1-2.9,9.009,9.009,0,0,0,.805-3.745A9.009,9.009,0,0,0,30.205-37a7.908,7.908,0,0,0-2.1-2.87A4.08,4.08,0,0,0,25.48-40.95H13.3v15.47Zm81.06.98A26.571,26.571,0,0,1,103.46-11.8a23.588,23.588,0,0,1-8.5,9.135A22.725,22.725,0,0,1,82.74.7,22.725,22.725,0,0,1,70.525-2.66a23.331,23.331,0,0,1-8.47-9.135A26.817,26.817,0,0,1,59.01-24.5a26.817,26.817,0,0,1,3.045-12.7,23.331,23.331,0,0,1,8.47-9.135A22.725,22.725,0,0,1,82.74-49.7a22.725,22.725,0,0,1,12.215,3.36,23.588,23.588,0,0,1,8.5,9.135A26.571,26.571,0,0,1,106.54-24.5Zm-9.1,0a18.9,18.9,0,0,0-1.89-8.5A15.254,15.254,0,0,0,90.3-39.06a13.323,13.323,0,0,0-7.56-2.24,13.428,13.428,0,0,0-7.6,2.2,14.789,14.789,0,0,0-5.18,6.055A19.417,19.417,0,0,0,68.11-24.5a19.417,19.417,0,0,0,1.855,8.54,14.789,14.789,0,0,0,5.18,6.055A13.428,13.428,0,0,0,82.74-7.7,13.323,13.323,0,0,0,90.3-9.94,15.254,15.254,0,0,0,95.55-16,18.9,18.9,0,0,0,97.44-24.5ZM167.02-6.86a4.123,4.123,0,0,1,1.435,1.47,3.732,3.732,0,0,1,.525,1.89,3.614,3.614,0,0,1-.84,2.31A3.953,3.953,0,0,1,164.92.07a6.285,6.285,0,0,1-3.08-.77q-5.04-2.87-5.04-11.69a5.081,5.081,0,0,0-1.645-3.99,6.864,6.864,0,0,0-4.725-1.47H137.34V-4.27a4.581,4.581,0,0,1-1.015,3.08A3.366,3.366,0,0,1,133.63,0,5.43,5.43,0,0,1,130.1-1.225,3.777,3.777,0,0,1,128.59-4.27V-44.73a4.134,4.134,0,0,1,1.225-3.045A4.134,4.134,0,0,1,132.86-49h20.16a12.974,12.974,0,0,1,6.86,1.96,14.466,14.466,0,0,1,5.145,5.39,15.459,15.459,0,0,1,1.925,7.7,13.649,13.649,0,0,1-1.89,6.825,15.06,15.06,0,0,1-4.9,5.285,10.725,10.725,0,0,1,4.83,8.26,11.769,11.769,0,0,1,.21,2.17,22.3,22.3,0,0,0,.56,3.115A2.308,2.308,0,0,0,167.02-6.86Zm-14.35-18.2a3.485,3.485,0,0,0,2.45-1.19,9.034,9.034,0,0,0,1.96-3.185,11.853,11.853,0,0,0,.77-4.305,8.4,8.4,0,0,0-.77-3.6,7.386,7.386,0,0,0-1.96-2.625,3.826,3.826,0,0,0-2.45-.98H137.34v15.89ZM221.83-49a4.312,4.312,0,0,1,3.08,1.12,3.85,3.85,0,0,1,1.19,2.94,3.739,3.739,0,0,1-1.19,2.9,4.394,4.394,0,0,1-3.08,1.085H210.84V-4.27a3.971,3.971,0,0,1-1.33,3.045A4.674,4.674,0,0,1,206.22,0,4.428,4.428,0,0,1,203-1.225a4.075,4.075,0,0,1-1.26-3.045V-40.95H190.75a4.312,4.312,0,0,1-3.08-1.12,3.85,3.85,0,0,1-1.19-2.94,3.714,3.714,0,0,1,1.225-2.87A4.343,4.343,0,0,1,190.75-49ZM282.38-5.46a4.71,4.71,0,0,1,.35,1.68,3.964,3.964,0,0,1-1.19,2.975A3.809,3.809,0,0,1,278.81.35a3.671,3.671,0,0,1-2.275-.77,5,5,0,0,1-1.575-2.1l-3.64-8.47H250.46l-3.64,8.54a4.306,4.306,0,0,1-1.5,2.065A3.682,3.682,0,0,1,243.11.35a3.667,3.667,0,0,1-2.765-.98,3.671,3.671,0,0,1-.945-2.66,4.631,4.631,0,0,1,.21-1.33l17.43-41.86a4.645,4.645,0,0,1,1.68-2.17,3.667,3.667,0,0,1,2.52-.63,4.1,4.1,0,0,1,2.345.735,4.146,4.146,0,0,1,1.575,2.065ZM253.89-19.04h14l-7.07-16.38Zm57.54-21.91v12.32h15.12a4.267,4.267,0,0,1,3.045,1.155A3.906,3.906,0,0,1,330.82-24.5a3.705,3.705,0,0,1-1.225,2.73,4.2,4.2,0,0,1-3.045,1.19H311.43V-4.27a4.021,4.021,0,0,1-1.3,3.045A4.286,4.286,0,0,1,307.09,0a4.378,4.378,0,0,1-3.185-1.19,4.1,4.1,0,0,1-1.225-3.08V-44.73a4.134,4.134,0,0,1,1.225-3.045A4.134,4.134,0,0,1,306.95-49H329.7a4.267,4.267,0,0,1,3.045,1.155,3.906,3.906,0,0,1,1.225,2.975,3.7,3.7,0,0,1-1.225,2.73,4.2,4.2,0,0,1-3.045,1.19ZM400.47-24.5A26.571,26.571,0,0,1,397.39-11.8a23.588,23.588,0,0,1-8.505,9.135A22.725,22.725,0,0,1,376.67.7a22.725,22.725,0,0,1-12.215-3.36,23.331,23.331,0,0,1-8.47-9.135A26.817,26.817,0,0,1,352.94-24.5a26.817,26.817,0,0,1,3.045-12.7,23.331,23.331,0,0,1,8.47-9.135A22.725,22.725,0,0,1,376.67-49.7a22.725,22.725,0,0,1,12.215,3.36,23.588,23.588,0,0,1,8.505,9.135A26.571,26.571,0,0,1,400.47-24.5Zm-9.1,0a18.9,18.9,0,0,0-1.89-8.5,15.254,15.254,0,0,0-5.25-6.055,13.323,13.323,0,0,0-7.56-2.24,13.428,13.428,0,0,0-7.6,2.2,14.789,14.789,0,0,0-5.18,6.055,19.417,19.417,0,0,0-1.855,8.54,19.417,19.417,0,0,0,1.855,8.54,14.789,14.789,0,0,0,5.18,6.055,13.428,13.428,0,0,0,7.6,2.205,13.323,13.323,0,0,0,7.56-2.24A15.254,15.254,0,0,0,389.48-16,18.9,18.9,0,0,0,391.37-24.5ZM449.54-8.19a4.267,4.267,0,0,1,3.045,1.155A3.906,3.906,0,0,1,453.81-4.06a3.824,3.824,0,0,1-1.225,2.9A4.267,4.267,0,0,1,449.54,0H426.79a4.134,4.134,0,0,1-3.045-1.225A4.134,4.134,0,0,1,422.52-4.27V-44.73a4.075,4.075,0,0,1,1.26-3.045A4.428,4.428,0,0,1,427-49a4.167,4.167,0,0,1,3.01,1.225,4.075,4.075,0,0,1,1.26,3.045V-8.19Zm35.07,3.92a3.971,3.971,0,0,1-1.33,3.045A4.408,4.408,0,0,1,480.2,0a4.22,4.22,0,0,1-3.115-1.225A4.134,4.134,0,0,1,475.86-4.27V-44.73a4.075,4.075,0,0,1,1.26-3.045A4.428,4.428,0,0,1,480.34-49a4.167,4.167,0,0,1,3.01,1.225,4.075,4.075,0,0,1,1.26,3.045ZM554.19-24.5A26.571,26.571,0,0,1,551.11-11.8a23.588,23.588,0,0,1-8.5,9.135A22.725,22.725,0,0,1,530.39.7a22.725,22.725,0,0,1-12.215-3.36,23.331,23.331,0,0,1-8.47-9.135A26.817,26.817,0,0,1,506.66-24.5a26.817,26.817,0,0,1,3.045-12.7,23.331,23.331,0,0,1,8.47-9.135A22.725,22.725,0,0,1,530.39-49.7a22.725,22.725,0,0,1,12.215,3.36,23.588,23.588,0,0,1,8.5,9.135A26.571,26.571,0,0,1,554.19-24.5Zm-9.1,0a18.9,18.9,0,0,0-1.89-8.5,15.254,15.254,0,0,0-5.25-6.055,13.323,13.323,0,0,0-7.56-2.24,13.427,13.427,0,0,0-7.595,2.2,14.79,14.79,0,0,0-5.18,6.055,19.417,19.417,0,0,0-1.855,8.54,19.417,19.417,0,0,0,1.855,8.54,14.789,14.789,0,0,0,5.18,6.055A13.427,13.427,0,0,0,530.39-7.7a13.323,13.323,0,0,0,7.56-2.24A15.254,15.254,0,0,0,543.2-16,18.9,18.9,0,0,0,545.09-24.5ZM664.93-49.21a4.566,4.566,0,0,1,3.115,1.295,4.2,4.2,0,0,1,1.435,3.255,5.365,5.365,0,0,1-.21,1.4L655.48-2.66a3.691,3.691,0,0,1-1.47,1.89A4.547,4.547,0,0,1,651.7,0a4.416,4.416,0,0,1-2.38-.7,4.684,4.684,0,0,1-1.75-2.03l-9.94-22.61L627.62-2.73A4.684,4.684,0,0,1,625.87-.7a4.416,4.416,0,0,1-2.38.7,4.547,4.547,0,0,1-2.31-.77,3.691,3.691,0,0,1-1.47-1.89l-13.79-40.6a5.365,5.365,0,0,1-.21-1.4,4.2,4.2,0,0,1,1.435-3.255,4.645,4.645,0,0,1,3.185-1.295,4.492,4.492,0,0,1,2.52.735,3.739,3.739,0,0,1,1.54,1.995l10.43,31.64,9.1-21.84a4.709,4.709,0,0,1,1.61-1.995,3.7,3.7,0,0,1,2.38-.665,3.559,3.559,0,0,1,2.345.665,4.816,4.816,0,0,1,1.575,1.995l8.61,21.63L660.8-46.48a3.693,3.693,0,0,1,1.575-1.995A4.662,4.662,0,0,1,664.93-49.21ZM717.57-8.05a4.134,4.134,0,0,1,3.045,1.225A3.892,3.892,0,0,1,721.84-3.99a3.715,3.715,0,0,1-1.225,2.87A4.343,4.343,0,0,1,717.57,0H694.12a4.134,4.134,0,0,1-3.045-1.225A4.134,4.134,0,0,1,689.85-4.27V-44.73a4.134,4.134,0,0,1,1.225-3.045A4.134,4.134,0,0,1,694.12-49h23.45a4.268,4.268,0,0,1,3.045,1.155,3.906,3.906,0,0,1,1.225,2.975,3.657,3.657,0,0,1-1.19,2.835,4.394,4.394,0,0,1-3.08,1.085H698.6v11.9h15.82a4.267,4.267,0,0,1,3.045,1.155,3.906,3.906,0,0,1,1.225,2.975,3.657,3.657,0,0,1-1.19,2.835A4.394,4.394,0,0,1,714.42-21H698.6V-8.05Zm55.72-19.11a14.093,14.093,0,0,1,6.055,4.48,12.275,12.275,0,0,1,2.345,7.77q0,8.33-4.76,11.62A19.447,19.447,0,0,1,765.59,0H748.16a4.134,4.134,0,0,1-3.045-1.225A4.134,4.134,0,0,1,743.89-4.27V-44.73a4.134,4.134,0,0,1,1.225-3.045A4.134,4.134,0,0,1,748.16-49H765.8q13.3,0,13.3,12.46a10.3,10.3,0,0,1-1.505,5.565A10.418,10.418,0,0,1,773.29-27.16ZM770-35a5.847,5.847,0,0,0-1.435-4.305,5.442,5.442,0,0,0-4.025-1.435H752.99v10.92h11.76a5.359,5.359,0,0,0,3.675-1.4A4.8,4.8,0,0,0,770-35ZM765.59-8.05a7.2,7.2,0,0,0,5.145-1.75,6.692,6.692,0,0,0,1.855-5.11q0-4.13-2.17-5.39a10.438,10.438,0,0,0-5.32-1.26H752.99V-8.05Z" transform="translate(832 1868)" fill="#fff"/>
    </g>
  </g>
</svg>
