<svg xmlns="http://www.w3.org/2000/svg" width="301" height="27" viewBox="0 0 301 27">
  <g id="Grupo_646" data-name="Grupo 646" transform="translate(-102 -57)">
    <g id="Grupo_646-2" data-name="Grupo 646">
      <rect id="Rectángulo_602" data-name="Rectángulo 602" width="95" height="27" rx="4" transform="translate(102 57)" fill="#1051b5"/>
      <text id="diseñador" transform="translate(109 76)" fill="#fff" font-size="14" font-family="Quicksand-Medium, Quicksand" font-weight="500" letter-spacing="0.005em"><tspan x="0" y="0">DISEÑADOR</tspan></text>
    </g>
    <g id="Grupo_647" data-name="Grupo 647" transform="translate(1)">
      <path id="Trazado_300" data-name="Trazado 300" d="M6,0H70a6,6,0,0,1,6,6V21a6,6,0,0,1-6,6H6a6,6,0,0,1-6-6V6A6,6,0,0,1,6,0Z" transform="translate(210 57)" fill="#1051b5"/>
      <text id="grafico" transform="translate(218 76)" fill="#e4e4e4" font-size="14" font-family="Quicksand-Medium, Quicksand" font-weight="500" letter-spacing="0.005em"><tspan x="0" y="0">GRAFICO</tspan></text>
    </g>
    <g id="Grupo_648" data-name="Grupo 648" transform="translate(-46 4)">
      <path id="Trazado_301" data-name="Trazado 301" d="M6,0H27a6,6,0,0,1,6,6V21a6,6,0,0,1-6,6H6a6,6,0,0,1-6-6V6A6,6,0,0,1,6,0Z" transform="translate(347 53)" fill="#1051b5"/>
      <text id="_3d" data-name="3d" transform="translate(355 72)" fill="#fff" font-size="14" font-family="Quicksand-Medium, Quicksand" font-weight="500" letter-spacing="0.005em"><tspan x="0" y="0">3D</tspan></text>
    </g>
    <g id="Grupo_649" data-name="Grupo 649" transform="translate(-44 4)">
      <rect id="Rectángulo_607" data-name="Rectángulo 607" width="55" height="27" rx="6" transform="translate(392 53)" fill="#1051b5"/>
      <text id="ux_ui" data-name="ux+ui" transform="translate(399 72)" fill="#fff" font-size="14" font-family="Quicksand-Medium, Quicksand" font-weight="500" letter-spacing="0.005em"><tspan x="0" y="0">UX+UI</tspan></text>
    </g>
  </g>
</svg>
